<?xml version="1.0" encoding="UTF-8" standalone="no"?><!DOCTYPE svg PUBLIC "-//W3C//DTD SVG 1.1//EN" "http://www.w3.org/Graphics/SVG/1.1/DTD/svg11.dtd"><svg width="100%" height="100%" viewBox="0 0 425 125" version="1.1" xmlns="http://www.w3.org/2000/svg" xmlns:xlink="http://www.w3.org/1999/xlink" xml:space="preserve" xmlns:serif="http://www.serif.com/" style="fill-rule:evenodd;clip-rule:evenodd;stroke-linejoin:round;stroke-miterlimit:1.41421;"><g id="_688565584"><g><g><path d="M96.922,78.042l0,-56.479l8.628,0c4.267,0 7.81,1.377 10.631,4.131c2.822,2.753 4.232,6.03 4.232,9.83c0,5.095 -2.449,9.157 -7.349,12.186c5.753,2.696 8.629,7.373 8.629,14.031c0,4.814 -1.555,8.735 -4.665,11.761c-3.11,3.027 -7.528,4.54 -13.253,4.54l-6.853,0Zm7.266,-32.534l0.66,0c2.533,0 4.549,-0.798 6.049,-2.394c1.5,-1.596 2.25,-3.73 2.25,-6.399c0,-2.67 -0.723,-4.734 -2.168,-6.193c-1.445,-1.459 -3.488,-2.188 -6.131,-2.188l-0.66,0l0,17.174Zm0,25.763l1.28,0c2.807,0 5.002,-0.817 6.585,-2.451c1.582,-1.634 2.374,-3.907 2.374,-6.818c0,-2.884 -0.778,-5.225 -2.333,-7.024c-1.555,-1.799 -3.764,-2.699 -6.626,-2.699l-1.28,0l0,18.992Z" style="fill:#2b2a29;fill-rule:nonzero;"/><path d="M127.184,76.597l0,-7.514c2.174,2.064 4.28,3.096 6.317,3.096c1.514,0 2.807,-0.533 3.881,-1.598c1.073,-1.065 1.61,-2.349 1.61,-3.852c0,-1.293 -0.303,-2.862 -0.908,-4.706c-0.606,-1.844 -2.237,-5.25 -4.893,-10.218c-2.656,-4.968 -4.383,-8.732 -5.181,-11.292c-0.798,-2.56 -1.197,-4.817 -1.197,-6.771c0,-3.798 1.08,-6.902 3.24,-9.31c2.161,-2.408 4.92,-3.612 8.278,-3.612c1.899,0 3.922,0.495 6.069,1.486l0,6.853c-1.981,-1.156 -3.674,-1.734 -5.078,-1.734c-3.661,0 -5.491,1.789 -5.491,5.367c0,1.322 0.31,2.911 0.929,4.769c0.619,1.858 2.257,5.243 4.913,10.156c2.656,4.913 4.376,8.657 5.161,11.23c0.784,2.574 1.176,4.851 1.176,6.833c0,3.853 -1.08,6.984 -3.241,9.392c-2.16,2.409 -4.961,3.613 -8.401,3.613c-2.477,0 -4.872,-0.73 -7.184,-2.188Z" style="fill:#2b2a29;fill-rule:nonzero;"/><path d="M153.112,78.042l0,-56.479l20.106,0l0,6.771l-12.84,0l0,16.885l11.766,0l0,6.771l-11.766,0l0,19.281l13.542,0l0,6.771l-20.808,0Z" style="fill:#2b2a29;fill-rule:nonzero;"/><path d="M183.952,78.042l0,-56.479l6.069,0c4.844,0 8.539,1.424 11.085,4.273c2.546,2.849 3.819,6.64 3.819,11.374c0,5.367 -1.954,9.399 -5.862,12.097c3.027,2.147 5.601,7.858 7.72,17.133l2.601,11.602l-7.616,0l-2.184,-9.744c-1.559,-6.826 -2.916,-11.168 -4.072,-13.025c-1.156,-1.858 -2.587,-2.691 -4.294,-2.498l0,25.267l-7.266,0Zm7.266,-32.038l0.331,0c4.073,0 6.11,-2.849 6.11,-8.546c0,-6.055 -2.147,-9.097 -6.441,-9.124l0,17.67Z" style="fill:#2b2a29;fill-rule:nonzero;"/><path d="M221.037,78.785l-10.456,-57.222l7.638,0l5.347,38.065l5.265,-38.065l7.595,0l-10.458,57.222l-4.931,0Z" style="fill:#2b2a29;fill-rule:nonzero;"/><path d="M236.055,78.042l10.651,-56.81l7.556,0l10.569,56.81l-7.019,0l-2.023,-12.51l-10.486,0l-2.23,12.51l-7.018,0Zm10.321,-19.281l8.134,0l-3.964,-23.657l-0.206,0l-3.964,23.657Z" style="fill:#2b2a29;fill-rule:nonzero;"/><path d="M272.84,78.042l0,-49.708l-8.67,0l0,-6.771l24.607,0l0,6.771l-8.67,0l0,49.708l-7.267,0Z" style="fill:#2b2a29;fill-rule:nonzero;"/><path d="M304.878,78.785c-4.459,0 -8.092,-2.581 -10.899,-7.741c-2.808,-5.161 -4.211,-12.241 -4.211,-21.242c0,-8.505 1.328,-15.461 3.984,-20.87c2.656,-5.408 6.365,-8.112 11.126,-8.112c4.624,0 8.306,2.697 11.044,8.092c2.739,5.394 4.108,12.358 4.108,20.89c0,9.083 -1.445,16.184 -4.335,21.304c-2.89,5.119 -6.496,7.679 -10.817,7.679Zm-0.082,-51.195c-2.395,0 -4.232,1.972 -5.512,5.914c-1.28,3.942 -1.92,9.375 -1.92,16.298c0,7.171 0.661,12.665 1.982,16.484c1.321,3.819 3.193,5.728 5.615,5.728c2.312,0 4.135,-1.951 5.47,-5.852c1.335,-3.901 2.002,-9.354 2.002,-16.36c0,-7.115 -0.674,-12.596 -2.023,-16.442c-1.348,-3.846 -3.22,-5.77 -5.614,-5.77Z" style="fill:#2b2a29;fill-rule:nonzero;"/><rect x="327.627" y="21.563" width="7.266" height="56.479" style="fill:#2b2a29;fill-rule:nonzero;"/><path d="M344.636,78.042l0,-56.479l6.069,0c4.845,0 8.54,1.424 11.086,4.273c2.546,2.849 3.819,6.64 3.819,11.374c0,5.367 -1.955,9.399 -5.863,12.097c3.028,2.147 5.601,7.858 7.72,17.133l2.601,11.602l-7.615,0l-2.185,-9.744c-1.558,-6.826 -2.916,-11.168 -4.072,-13.025c-1.156,-1.858 -2.587,-2.691 -4.293,-2.498l0,25.267l-7.267,0Zm7.267,-32.038l0.33,0c4.074,0 6.11,-2.849 6.11,-8.546c0,-6.055 -2.147,-9.097 -6.44,-9.124l0,17.67Z" style="fill:#2b2a29;fill-rule:nonzero;"/><path d="M375.436,78.042l0,-56.479l20.106,0l0,6.771l-12.84,0l0,16.885l11.766,0l0,6.771l-11.766,0l0,19.281l13.542,0l0,6.771l-20.808,0Z" style="fill:#2b2a29;fill-rule:nonzero;"/><path d="M55.167,79.561l0,-0.072c-14.906,-2.171 -26.411,-15.051 -26.411,-30.536c0,-17.077 13.821,-30.825 30.825,-30.825c17.005,0 30.825,13.748 30.825,30.825c0,15.919 -12.011,28.944 -27.496,30.608l-7.743,0Zm4.414,-9.117c-11.867,0 -21.49,-9.624 -21.49,-21.491c0,-11.867 9.623,-21.49 21.49,-21.49c11.867,0 21.491,9.623 21.491,21.49c0,11.867 -9.624,21.491 -21.491,21.491Z" style="fill:#2b2a29;"/></g><path d="M104.99,86.942c2.478,0 4.551,0.959 6.22,2.876c1.669,1.918 2.504,4.279 2.504,7.082c0,2.778 -0.833,5.134 -2.498,7.069c-1.666,1.935 -3.697,2.903 -6.093,2.903c-2.426,0 -4.473,-0.963 -6.142,-2.89c-1.669,-1.926 -2.504,-4.257 -2.504,-6.991c0,-1.824 0.38,-3.513 1.141,-5.07c0.76,-1.556 1.797,-2.776 3.11,-3.657c1.313,-0.881 2.734,-1.322 4.262,-1.322Zm0.072,1.844c-1.21,0 -2.358,0.366 -3.442,1.098c-1.084,0.731 -1.93,1.717 -2.539,2.956c-0.609,1.239 -0.914,2.621 -0.914,4.144c0,2.255 0.674,4.159 2.022,5.713c1.348,1.553 2.972,2.33 4.873,2.33c1.27,0 2.445,-0.357 3.525,-1.071c1.081,-0.715 1.924,-1.691 2.529,-2.931c0.605,-1.239 0.908,-2.616 0.908,-4.131c0,-1.506 -0.303,-2.868 -0.908,-4.086c-0.605,-1.218 -1.458,-2.193 -2.556,-2.924c-1.099,-0.732 -2.265,-1.098 -3.498,-1.098Z" style="fill:#ed6e00;fill-rule:nonzero;"/><path d="M116.983,87.419l3.259,0c1.868,0 3.128,0.095 3.781,0.284c0.934,0.266 1.697,0.815 2.291,1.645c0.593,0.829 0.889,1.872 0.889,3.128c0,1.264 -0.289,2.307 -0.867,3.128c-0.578,0.821 -1.375,1.374 -2.391,1.658c-0.742,0.206 -2.128,0.309 -4.159,0.309l-1.168,0l0,8.824l-1.635,0l0,-18.976Zm1.635,1.858l0,6.437l2.769,0.038c1.12,0 1.939,-0.118 2.458,-0.354c0.519,-0.236 0.926,-0.618 1.223,-1.146c0.297,-0.527 0.445,-1.117 0.445,-1.77c0,-0.635 -0.148,-1.216 -0.445,-1.744c-0.297,-0.528 -0.688,-0.904 -1.173,-1.127c-0.486,-0.223 -1.281,-0.334 -2.386,-0.334l-2.891,0Z" style="fill:#ed6e00;fill-rule:nonzero;"/><path d="M130.484,87.419l9.374,0l0,1.858l-7.74,0l0,5.946l7.674,0l0,1.858l-7.674,0l0,7.456l7.674,0l0,1.858l-9.308,0l0,-18.976Z" style="fill:#ed6e00;fill-rule:nonzero;"/><path d="M142.694,106.395l0,-18.976l0.356,0l10.887,14.546l0,-14.546l1.613,0l0,18.976l-0.367,0l-10.798,-14.369l0,14.369l-1.691,0Z" style="fill:#ed6e00;fill-rule:nonzero;"/><path d="M159.531,106.395l0,-18.976l3.392,0c2.446,0 4.222,0.228 5.326,0.684c1.587,0.645 2.827,1.763 3.72,3.354c0.893,1.591 1.34,3.487 1.34,5.688c0,1.901 -0.354,3.574 -1.062,5.018c-0.708,1.445 -1.627,2.512 -2.758,3.2c-1.13,0.688 -2.715,1.032 -4.754,1.032l-5.204,0Zm1.568,-1.794l1.89,0c2.261,0 3.829,-0.163 4.704,-0.489c1.231,-0.464 2.198,-1.3 2.903,-2.507c0.704,-1.207 1.056,-2.683 1.056,-4.428c0,-1.83 -0.382,-3.394 -1.145,-4.691c-0.764,-1.297 -1.828,-2.187 -3.192,-2.668c-1.023,-0.361 -2.71,-0.541 -5.06,-0.541l-1.156,0l0,15.324Z" style="fill:#ed6e00;fill-rule:nonzero;"/><path d="M183.162,87.419l7.629,18.976l-1.766,0l-2.573,-6.244l-7.047,0l-2.548,6.244l-1.824,0l7.729,-18.976l0.4,0Zm-0.206,4.032l-2.803,6.868l5.592,0l-2.789,-6.868Z" style="fill:#ed6e00;fill-rule:nonzero;"/><path d="M191.703,89.277l0,-1.858l8.963,0l0,1.858l-3.648,0l0,17.118l-1.668,0l0,-17.118l-3.647,0Z" style="fill:#ed6e00;fill-rule:nonzero;"/><path d="M209.707,87.419l7.629,18.976l-1.766,0l-2.573,-6.244l-7.047,0l-2.549,6.244l-1.823,0l7.729,-18.976l0.4,0Zm-0.207,4.032l-2.803,6.868l5.593,0l-2.79,-6.868Z" style="fill:#ed6e00;fill-rule:nonzero;"/><path d="M226.176,106.395l0,-18.976l3.392,0c2.447,0 4.222,0.228 5.327,0.684c1.587,0.645 2.826,1.763 3.72,3.354c0.893,1.591 1.34,3.487 1.34,5.688c0,1.901 -0.354,3.574 -1.062,5.018c-0.708,1.445 -1.627,2.512 -2.758,3.2c-1.131,0.688 -2.715,1.032 -4.754,1.032l-5.205,0Zm1.568,-1.794l1.891,0c2.261,0 3.829,-0.163 4.704,-0.489c1.231,-0.464 2.198,-1.3 2.902,-2.507c0.705,-1.207 1.057,-2.683 1.057,-4.428c0,-1.83 -0.382,-3.394 -1.146,-4.691c-0.763,-1.297 -1.827,-2.187 -3.191,-2.668c-1.023,-0.361 -2.71,-0.541 -5.06,-0.541l-1.157,0l0,15.324Z" style="fill:#ed6e00;fill-rule:nonzero;"/><path d="M243.135,87.419l9.375,0l0,1.858l-7.74,0l0,5.946l7.673,0l0,1.858l-7.673,0l0,7.456l7.673,0l0,1.858l-9.308,0l0,-18.976Z" style="fill:#ed6e00;fill-rule:nonzero;"/><path d="M253.644,102.86l1.39,-0.967c0.979,2.089 2.11,3.134 3.392,3.134c0.549,0 1.064,-0.148 1.546,-0.445c0.482,-0.297 0.849,-0.694 1.101,-1.193c0.252,-0.499 0.378,-1.028 0.378,-1.587c0,-0.636 -0.185,-1.26 -0.556,-1.87c-0.512,-0.843 -1.446,-1.858 -2.802,-3.045c-1.365,-1.195 -2.213,-2.059 -2.547,-2.592c-0.578,-0.895 -0.867,-1.862 -0.867,-2.903c0,-0.825 0.17,-1.578 0.511,-2.257c0.341,-0.68 0.821,-1.215 1.44,-1.606c0.619,-0.392 1.292,-0.587 2.019,-0.587c0.771,0 1.492,0.221 2.163,0.664c0.67,0.443 1.38,1.258 2.129,2.445l-1.334,1.173c-0.616,-0.945 -1.14,-1.569 -1.574,-1.87c-0.434,-0.301 -0.906,-0.451 -1.418,-0.451c-0.66,0 -1.199,0.232 -1.618,0.696c-0.419,0.465 -0.628,1.036 -0.628,1.716c0,0.413 0.074,0.812 0.222,1.199c0.149,0.387 0.419,0.809 0.812,1.265c0.215,0.24 0.919,0.873 2.113,1.896c1.416,1.212 2.387,2.292 2.914,3.238c0.526,0.946 0.789,1.896 0.789,2.851c0,1.376 -0.45,2.571 -1.351,3.586c-0.901,1.014 -1.996,1.522 -3.286,1.522c-0.994,0 -1.894,-0.308 -2.702,-0.923c-0.809,-0.614 -1.554,-1.644 -2.236,-3.089Z" style="fill:#ed6e00;fill-rule:nonzero;"/><path d="M271.359,89.277l0,-1.858l8.964,0l0,1.858l-3.648,0l0,17.118l-1.668,0l0,-17.118l-3.648,0Z" style="fill:#ed6e00;fill-rule:nonzero;"/><path d="M282.691,87.419l9.375,0l0,1.858l-7.74,0l0,5.946l7.673,0l0,1.858l-7.673,0l0,7.456l7.673,0l0,1.858l-9.308,0l0,-18.976Z" style="fill:#ed6e00;fill-rule:nonzero;"/><path d="M294.98,87.419l3.258,0c1.816,0 3.047,0.086 3.692,0.258c0.971,0.259 1.761,0.812 2.369,1.66c0.608,0.848 0.912,1.892 0.912,3.132c0,1.034 -0.21,1.942 -0.629,2.726c-0.419,0.783 -1.017,1.375 -1.796,1.775c-0.778,0.401 -1.853,0.605 -3.225,0.614l5.883,8.811l-2.022,0l-5.883,-8.811l-0.925,0l0,8.811l-1.634,0l0,-18.976Zm1.634,1.858l0,6.449l2.818,0.026c1.092,0 1.899,-0.12 2.423,-0.361c0.524,-0.24 0.932,-0.625 1.225,-1.154c0.294,-0.529 0.44,-1.12 0.44,-1.774c0,-0.637 -0.148,-1.215 -0.445,-1.735c-0.297,-0.52 -0.687,-0.892 -1.17,-1.116c-0.483,-0.224 -1.285,-0.335 -2.406,-0.335l-2.885,0Z" style="fill:#ed6e00;fill-rule:nonzero;"/><path d="M308.802,87.419l3.259,0c1.816,0 3.047,0.086 3.692,0.258c0.971,0.259 1.761,0.812 2.369,1.66c0.607,0.848 0.911,1.892 0.911,3.132c0,1.034 -0.209,1.942 -0.628,2.726c-0.419,0.783 -1.017,1.375 -1.796,1.775c-0.778,0.401 -1.853,0.605 -3.225,0.614l5.883,8.811l-2.022,0l-5.884,-8.811l-0.924,0l0,8.811l-1.635,0l0,-18.976Zm1.635,1.858l0,6.449l2.818,0.026c1.092,0 1.899,-0.12 2.423,-0.361c0.523,-0.24 0.932,-0.625 1.225,-1.154c0.293,-0.529 0.44,-1.12 0.44,-1.774c0,-0.637 -0.148,-1.215 -0.445,-1.735c-0.297,-0.52 -0.687,-0.892 -1.17,-1.116c-0.483,-0.224 -1.285,-0.335 -2.406,-0.335l-2.885,0Z" style="fill:#ed6e00;fill-rule:nonzero;"/><rect x="322.303" y="87.419" width="1.635" height="18.975" style="fill:#ed6e00;fill-rule:nonzero;"/><path d="M326.062,89.277l0,-1.858l8.963,0l0,1.858l-3.648,0l0,17.118l-1.668,0l0,-17.118l-3.647,0Z" style="fill:#ed6e00;fill-rule:nonzero;"/><path d="M345.172,86.942c2.478,0 4.551,0.959 6.221,2.876c1.669,1.918 2.503,4.279 2.503,7.082c0,2.778 -0.832,5.134 -2.498,7.069c-1.665,1.935 -3.696,2.903 -6.092,2.903c-2.426,0 -4.473,-0.963 -6.143,-2.89c-1.669,-1.926 -2.503,-4.257 -2.503,-6.991c0,-1.824 0.38,-3.513 1.14,-5.07c0.76,-1.556 1.797,-2.776 3.11,-3.657c1.313,-0.881 2.734,-1.322 4.262,-1.322Zm0.073,1.844c-1.211,0 -2.358,0.366 -3.442,1.098c-1.084,0.731 -1.931,1.717 -2.54,2.956c-0.609,1.239 -0.913,2.621 -0.913,4.144c0,2.255 0.674,4.159 2.021,5.713c1.348,1.553 2.973,2.33 4.874,2.33c1.269,0 2.444,-0.357 3.525,-1.071c1.08,-0.715 1.923,-1.691 2.528,-2.931c0.606,-1.239 0.908,-2.616 0.908,-4.131c0,-1.506 -0.302,-2.868 -0.908,-4.086c-0.605,-1.218 -1.457,-2.193 -2.556,-2.924c-1.099,-0.732 -2.265,-1.098 -3.497,-1.098Z" style="fill:#ed6e00;fill-rule:nonzero;"/><rect x="356.944" y="87.419" width="1.635" height="18.975" style="fill:#ed6e00;fill-rule:nonzero;"/><path d="M362.415,87.419l3.258,0c1.817,0 3.047,0.086 3.692,0.258c0.971,0.259 1.761,0.812 2.369,1.66c0.608,0.848 0.912,1.892 0.912,3.132c0,1.034 -0.21,1.942 -0.629,2.726c-0.418,0.783 -1.017,1.375 -1.796,1.775c-0.778,0.401 -1.853,0.605 -3.224,0.614l5.882,8.811l-2.022,0l-5.883,-8.811l-0.924,0l0,8.811l-1.635,0l0,-18.976Zm1.635,1.858l0,6.449l2.818,0.026c1.091,0 1.899,-0.12 2.422,-0.361c0.524,-0.24 0.932,-0.625 1.225,-1.154c0.294,-0.529 0.44,-1.12 0.44,-1.774c0,-0.637 -0.148,-1.215 -0.445,-1.735c-0.297,-0.52 -0.687,-0.892 -1.17,-1.116c-0.482,-0.224 -1.284,-0.335 -2.406,-0.335l-2.884,0Z" style="fill:#ed6e00;fill-rule:nonzero;"/><path d="M376.16,87.419l9.375,0l0,1.858l-7.74,0l0,5.946l7.673,0l0,1.858l-7.673,0l0,7.456l7.673,0l0,1.858l-9.308,0l0,-18.976Z" style="fill:#ed6e00;fill-rule:nonzero;"/><path d="M386.669,102.86l1.39,-0.967c0.979,2.089 2.109,3.134 3.392,3.134c0.548,0 1.064,-0.148 1.545,-0.445c0.482,-0.297 0.849,-0.694 1.101,-1.193c0.252,-0.499 0.379,-1.028 0.379,-1.587c0,-0.636 -0.186,-1.26 -0.557,-1.87c-0.511,-0.843 -1.445,-1.858 -2.802,-3.045c-1.364,-1.195 -2.213,-2.059 -2.547,-2.592c-0.578,-0.895 -0.867,-1.862 -0.867,-2.903c0,-0.825 0.171,-1.578 0.512,-2.257c0.341,-0.68 0.821,-1.215 1.44,-1.606c0.619,-0.392 1.292,-0.587 2.018,-0.587c0.771,0 1.492,0.221 2.163,0.664c0.671,0.443 1.381,1.258 2.13,2.445l-1.335,1.173c-0.615,-0.945 -1.14,-1.569 -1.573,-1.87c-0.434,-0.301 -0.907,-0.451 -1.418,-0.451c-0.66,0 -1.199,0.232 -1.618,0.696c-0.419,0.465 -0.629,1.036 -0.629,1.716c0,0.413 0.075,0.812 0.223,1.199c0.148,0.387 0.419,0.809 0.812,1.265c0.215,0.24 0.919,0.873 2.113,1.896c1.416,1.212 2.387,2.292 2.913,3.238c0.526,0.946 0.79,1.896 0.79,2.851c0,1.376 -0.451,2.571 -1.351,3.586c-0.901,1.014 -1.997,1.522 -3.287,1.522c-0.993,0 -1.894,-0.308 -2.702,-0.923c-0.808,-0.614 -1.553,-1.644 -2.235,-3.089Z" style="fill:#ed6e00;fill-rule:nonzero;"/></g></g></svg>